<svg viewBox="0 0 600 600" xmlns="http://www.w3.org/2000/svg" fill-rule="evenodd" clip-rule="evenodd" stroke-linejoin="round" stroke-miterlimit="2"><path d="M299.275 50.245c66.97 0 129.854 26.103 177.18 73.43 47.328 47.196 73.299 110.08 73.299 177.05 0 66.97-26.103 129.853-73.43 177.18-47.195 47.196-110.079 73.298-177.049 73.298-66.97 0-129.854-26.102-177.18-73.43-47.328-47.327-73.299-110.21-73.299-177.049 0-66.838 26.103-129.853 73.43-177.18 47.327-47.328 110.079-73.299 177.049-73.299m0-38.23c-159.516 0-288.71 129.194-288.71 288.71 0 159.515 129.194 288.71 288.71 288.71s288.71-129.327 288.71-288.71c0-159.384-129.194-288.71-288.71-288.71z" fill="#fff" fill-rule="nonzero"/><path d="M452.594 298.351c-1.582 1.319-2.9 3.164-4.745 3.692-75.144 20.697-121.285 71.057-146.201 143.036-.66 1.846-.923 3.955-2.11 5.273-1.977 2.11-6.327.264-7.118-2.9-18.457-74.352-66.18-121.548-137.104-147.123-2.769-1.055-6.46-.923-6.065-5.8.264-3.033 1.187-4.351 4.087-5.142 55.765-15.952 96.237-50.887 124.317-100.719 7.25-12.788 11.996-27.025 17.665-40.736 1.187-2.768 1.978-4.614 5.537-4.482 3.691.132 3.56 2.637 4.219 4.746 21.884 73.034 68.815 121.284 141.85 143.827 3.032.923 5.405 1.582 5.668 6.328zM300.461 161.774c-.922 2.373-1.45 3.296-1.713 4.35-1.714 7.515-3.164 14.898-4.878 22.412-5.669 24.784-12.656 49.173-25.18 71.453-1.186 2.109-3.164 4.086-5.273 5.14-20.17 10.943-41.922 17.007-64.202 21.753-11.469 2.505-23.07 4.746-34.54 6.987 1.187 1.318 2.505 1.846 3.824 2.11 8.7 1.977 17.401 3.822 26.102 5.8 22.939 5.273 45.482 11.47 66.048 23.466 3.163 1.846 6.196 5.01 7.91 8.305 10.15 19.38 15.82 40.34 20.433 61.565 2.505 11.338 4.746 22.675 7.12 34.408.79-.79 1.186-1.186 1.317-1.582.923-4.087 1.846-8.041 2.637-12.128 5.01-24.52 11.074-48.778 20.961-71.98 4.746-11.074 11.733-18.456 22.939-23.202 22.28-9.492 45.613-14.37 69.08-18.984 6.723-1.318 13.314-2.768 20.037-4.087-1.186-1.45-2.372-1.845-3.559-2.109-9.492-1.977-19.115-3.823-28.607-5.8-22.807-5.01-45.087-11.47-65.784-22.675-3.691-1.978-6.196-4.615-8.042-8.438-7.778-16.347-13.446-33.485-17.401-51.018-3.164-14.765-5.933-29.53-9.229-45.746z" fill="#fff" fill-rule="nonzero"/></svg>