<svg viewBox="0 0 2109 602" xmlns="http://www.w3.org/2000/svg" fill-rule="evenodd" clip-rule="evenodd" stroke-linejoin="round" stroke-miterlimit="2"><path d="M139.4 320.4c-25.2 0-50.3.1-75.5-.1-4.8 0-5.4 1.6-4.9 5.8 1.6 12.5 4.8 24.2 13.8 33.6 12.8 13.3 29 16.7 46.7 15.5 16.1-1.1 28.6-8.3 36.7-22.4 1.2-2.2 2.6-3 5.1-3 17.3.1 34.7.1 52 0 3.4 0 3.9 1.2 3.3 4.1-1.7 7.9-4.9 15.2-9.4 21.9-17.1 25.7-41.1 40.7-71.7 45.2-29.9 4.4-58.3.8-85.1-14.1-27.6-15.4-43.1-39-47.9-69.8-4.2-27.2-4-54.2 5-80.5 13.4-39 41.6-60.9 81.7-67.5 19.2-3.2 38.6-2.2 57.4 3.2 38.1 10.8 60.1 37.1 69.7 74.6 4.2 16.4 3.8 33.4 4.1 50.2.1 4.1-2.7 3.4-5.1 3.4-25.2-.1-50.5-.1-75.9-.1zm-29.3-38.6h45.5c2.5 0 4.6.1 4.1-3.6-2-15.1-8.2-27.6-21.8-35.7-8.2-4.9-17.2-7-26.7-7.1-18.4-.3-33.6 5.9-43.1 22.6-3.3 5.8-5.3 12.1-7 18.6-1 3.9-.4 5.3 4 5.2 15-.1 30 0 45 0zm1381.7 38.6c-25 0-50 .1-75-.1-4.3 0-5.7 1-5.3 5.6 2.2 32.1 26 51.9 59.8 49.4 16.2-1.2 29.1-7.9 37.3-22.3 1.3-2.3 2.9-3.1 5.6-3.1 17.2.1 34.3.1 51.5 0 3.4 0 4.2.8 3.4 4.2-3.8 17.2-14.2 30.3-26.6 41.9-15.9 14.9-35.2 22.5-56.5 25.3-25.1 3.4-49.4 1.1-72.8-9.3-36.8-16.3-55.7-45-59.5-84.4-2.2-22.6-1.3-44.9 4.9-66.8 11-38.6 43.9-66.9 83.7-71.9 20.2-2.6 40.3-1.9 59.8 4.2 36 11.2 56.9 36.6 66.4 72.2 4.5 16.9 4.2 34.3 4.2 51.6 0 4.1-2.6 3.5-5 3.5h-75.9zm-29.5-38.6c15.3 0 30.7-.1 46 .1 3.1 0 4.1-.7 3.6-4-1.4-10.5-4.6-20.2-12.3-27.8-15.1-15.1-33.7-17.5-53.3-12.4-20.3 5.2-28.8 21.1-33 40.1-.8 3.5.1 4.2 3.4 4.2 15.3-.2 30.5-.2 45.6-.2zm442.4 38.6c-25 0-50 .1-75-.1-4.8 0-5.8 1.4-5.3 6 3.1 32.6 26 51.5 59.6 49 16.4-1.2 29.3-8.1 37.6-22.7 1.3-2.2 2.8-2.8 5.2-2.8 17.2.1 34.3.1 51.5 0 3.2 0 4.4.5 3.6 4.2-1.6 6.9-4.1 13.4-7.8 19.3-14.1 22.5-33.6 38.2-59.6 44.7-34.8 8.7-68.3 6.2-100-12-24.1-13.8-39.3-34-45-61.2-6.6-31.6-6.6-63.1 5.3-93.4C1789 215.1 1817 195 1855 189c19.3-3.1 38.5-2 57.4 3.4 37.7 10.8 59.4 36.8 69.1 73.8 4.3 16.4 4 33.3 4.1 50.1 0 3.4-1.6 4.1-4.6 4.1-13.8-.1-27.7 0-41.5 0h-34.8zm-74.8-38.6h90.8c3.7.6 4.6-1.1 4.1-4.5-1.6-11-5.4-20.9-13.7-28.7-9.7-9.1-21.5-12.7-34.6-13.2-22.6-.8-38.7 9.8-46.9 30.8-1.5 3.7-2.3 7.6-3.3 11.5-1 3.6.4 4.2 3.6 4.1zM596.1 304.6c.1-33.6 10-63.6 32.9-88.7 10.6-11.6 23.7-19.3 38.7-23.8 24.3-7.3 48.9-7.7 73.6-2.7 32.5 6.6 55.2 26.1 68.4 55.8 20.3 45.5 18.5 90.3-7.9 133.1-13.5 22-33.5 35.2-58.6 40.7-23.3 5.2-46.7 5.1-69.8-.5-36-8.8-57.2-33.4-69.6-66.9-5.6-15.1-7.7-30.9-7.7-47zm165.7.5c0-13.7-1.4-27.3-6.9-40.1-8.6-19.9-24.1-29.5-45.6-29.6-21.9-.1-37.9 10.6-46.1 30.4-3.5 8.6-5.5 17.5-6.1 26.7-1.3 19.3-.7 38.4 8.6 56 9.7 18.5 25.8 26.1 46.2 25.3 18.8-.7 32.7-9.2 41.2-26 6.9-13.4 8.6-27.9 8.7-42.7zm-387.3 81.2c-4.8 5.6-9.1 10.7-14.3 15.3-21.9 19.3-47.6 21.3-74.7 16.6-20.9-3.6-36.4-15-45.4-34.5-4.2-9-6.2-18.6-7.4-28.4-1.3-10.4-1.6-20.9-1.6-31.4v-124c0-6.9 0-6.9 6.6-6.9 15.8 0 31.7.2 47.5-.1 4.8-.1 5.7 1.6 5.7 5.9-.1 43.2-.1 86.3-.1 129.5 0 7.3.6 14.6 2.5 21.8 3.1 11.5 10.4 19.1 22.1 21.2 26.4 4.8 48.4-5.6 54.2-34.2 1.1-5.2 1.9-10.5 1.9-15.8.1-40.3.1-80.6.2-121 0-8.1-.8-7.2 7.2-7.2 15.7 0 31.3.1 47-.1 3.6 0 4.9.9 4.9 4.7-.1 71-.1 141.9 0 212.9 0 3.5-1 4.6-4.5 4.5-15.8-.2-31.7-.2-47.5 0-3.5 0-4.6-1-4.5-4.5.4-8.1.2-16.2.2-24.3zm1638.2-60.7c0-28-.1-56 .1-84 0-4.2-1.1-5.5-5.3-5.3-7.8.3-15.7 0-23.5.1-2.7 0-3.9-.8-3.9-3.7.1-11.3.1-22.7 0-34 0-2.8 1-3.8 3.8-3.8 7.8.1 15.7-.1 23.5.1 3.5.1 4.6-1 4.5-4.5-.3-12-.2-24 2.1-35.8 4.8-24.1 18.4-36.8 43.5-40.8 15.2-2.4 30.5-2.5 45.8-1.1 2.5.2 3.5 1 3.5 3.6-.1 13.7-.1 27.3 0 41 0 2.9-1.2 3.2-3.7 2.9-5.8-.7-11.6-.9-17.5-.5-9.3.7-14.9 6.7-15.2 16-.1 5.2.1 10.3-.1 15.5-.1 2.9 1 3.7 3.8 3.7 9.8-.1 19.7.1 29.5-.1 3.7-.1 4.9 1 4.8 4.8-.2 10.7-.2 21.3 0 32 .1 3.9-1.3 4.8-4.9 4.8-9.2-.2-18.3.2-27.5-.2-4.6-.2-5.8 1.3-5.8 5.9.2 55 .1 110 .1 165 0 9 1.2 7.9-8 7.9-15 .1-30-.1-45 .1-4 .1-5-1.2-4.9-5.1.3-28.2.3-56.4.3-84.5zm-424.9-60.3c0-48.2.1-96.3-.1-144.5 0-4.4 1.1-5.7 5.5-5.6 16 .3 32 .2 48 0 4-.1 5 1.3 5 5.1-.1 96.5-.1 192.9 0 289.4 0 4.1-1.1 5.4-5.3 5.3-16-.2-32-.2-48 0-4.2.1-5.3-1.2-5.3-5.3.3-48.1.2-96.2.2-144.4zm-314.1-34.9c4.9-6.8 8.8-12.6 13-18.1 13.6-18.4 32.6-24.8 54.7-24.3 4 .1 5.8 1.1 5.7 5.7-.3 16.5-.3 33 0 49.5.1 4.2-1.3 5.2-5.2 4.6-9-1.4-18-1.2-26.9.5-22.5 4.2-34.7 17.9-37.2 41.4-.7 6.5-1 12.9-1 19.4.1 33.7 0 67.3.1 101 0 3.8-.8 5.2-4.9 5.1-16.3-.2-32.7-.2-49 0-3.8 0-4.8-1.1-4.8-4.8.1-70.8.1-141.6 0-212.4 0-3.5.7-5 4.7-4.9 15.5.2 31 .2 46.5 0 3.5 0 4.6 1 4.5 4.5-.4 10.3-.2 20.8-.2 32.8zm-751.4-1.1c2.8-4.1 5.5-8.1 8.2-12 6.8-9.6 14.6-18.2 25.6-23.2 10.8-5 22.3-6.6 34.1-6.1 3.2.1 4.6 1 4.6 4.6-.2 17-.2 34 0 51 0 3.6-1 4.7-4.5 4.2-9-1.4-18-1.2-26.9.3-22 3.8-34.5 16.9-37.6 39.3-.8 6.1-1.2 12.2-1.2 18.4 0 34.5-.1 69 .1 103.5 0 4.6-1.3 5.9-5.8 5.8-16-.3-32-.2-48 0-3.9 0-5-1.1-5-5.1.1-70.6.1-141.3 0-211.9 0-3.7.7-5.3 4.9-5.2 15.3.3 30.7.3 46 0 4.2-.1 5 1.5 4.9 5.2-.2 8.7-.1 17.3 0 26-.1 1.6-.7 3.3.6 5.2zm1219.2 74.5c0 35.2-.1 70.3.1 105.5 0 4.6-1.2 5.9-5.8 5.8-16-.3-32-.2-48 0-4 .1-5.4-.8-5.4-5.2.1-70.6.1-141.3 0-211.9 0-3.9 1-5.1 5-5.1 16.3.2 32.7.2 49 0 4.3-.1 5.2 1.5 5.2 5.4-.1 35.2-.1 70.4-.1 105.5zM1711.8 167c-8.3 0-16.6-.1-25 .1-3.1.1-4.4-.7-4.4-4.1.2-15.1.2-30.3 0-45.4 0-3.3 1.1-4.3 4.3-4.3 16.8.1 33.6.1 50.4 0 3 0 4.5.6 4.4 4.1-.2 15.1-.2 30.3 0 45.4 0 3.3-1.1 4.3-4.3 4.2-8.4-.1-16.9 0-25.4 0z" fill="#cd1d24" fill-rule="nonzero"/><g fill="#929497" fill-rule="nonzero"><path d="M1006.3 0c79.2 1.2 148 28 206.1 81.7 17.2 15.9 32.1 33.8 45.1 53.3.8 1.2 2.5 2.5 1.9 3.8-.8 1.8-3 .8-4.5.9-12.8.1-25.7-.1-38.5.1-3.1 0-5.1-1-7.1-3.4-42.1-50.7-95.4-82.9-160.6-93-83.2-12.9-156.5 9.8-219.3 66-9.3 8.3-17.8 17.6-25.6 27.3-1.7 2.1-3.4 3.1-6.2 3.1-13.3-.2-26.7 0-40-.1-1.2 0-2.9.8-3.6-.7-.6-1.3.9-2.4 1.6-3.4 34.8-52 81.1-90 139-113.6C928.7 8.1 964.3 1 1001.1.4c1.8-.1 3.7-.3 5.2-.4zm250.3 470.2c-64 87-148.4 133.8-256.3 131.7C897.6 600 817.4 553.2 757.4 471c1-1.7 1.9-1.7 2.7-1.7 14.5 0 29 .1 43.5-.1 2.8 0 4.2 1.5 5.7 3.3 21.4 24.6 46.6 44.6 75.4 60 98.7 52.8 222.7 35.3 303-42.8 5.9-5.7 11.5-11.6 16.8-17.7 1.4-1.6 2.6-2.7 5-2.7 14.8.1 29.7.1 44.5.1.4 0 .8.3 2.6.8z"/><path d="M1166.4 298.6c-1.6 1.3-3.1 3.3-4.9 3.9-78.3 21.6-126.4 74-152.4 149.1-.6 1.9-.9 4.1-2.2 5.4-2 2.2-6.6.2-7.4-3-19.3-77.5-69-126.6-142.9-153.4-2.9-1.1-6.7-.9-6.3-6 .3-3.2 1.2-4.5 4.3-5.4 58.1-16.6 100.4-53.1 129.6-105 7.5-13.4 12.5-28.2 18.4-42.5 1.2-2.8 2-4.8 5.8-4.7 3.8.1 3.7 2.8 4.3 5 22.8 76.1 71.8 126.4 147.8 150 3.2.9 5.6 1.6 5.9 6.6zm-158.5-142.4c-.9 2.4-1.5 3.4-1.7 4.5-1.7 7.8-3.3 15.6-5.1 23.4-6 25.8-13.2 51.2-26.2 74.5-1.2 2.2-3.3 4.2-5.5 5.4-21 11.4-43.7 17.7-66.9 22.7-12 2.6-24 4.9-36 7.3 1.3 1.3 2.6 1.9 4 2.2 9.1 2.1 18.2 4 27.2 6.1 23.9 5.5 47.5 12 68.8 24.4 3.4 2 6.5 5.3 8.3 8.7 10.6 20.2 16.5 42 21.3 64.2 2.5 11.8 4.9 23.6 7.4 35.9.8-.9 1.3-1.2 1.4-1.6 1-4.2 1.9-8.4 2.8-12.6 5.3-25.6 11.6-50.8 21.9-75 4.9-11.6 12.3-19.2 23.9-24.2 23.2-9.9 47.5-15 72-19.8 7-1.4 13.9-2.8 20.9-4.3-1.3-1.5-2.5-2-3.8-2.2-9.9-2.1-19.9-3.9-29.8-6.1-23.8-5.2-47-12-68.6-23.7-3.9-2.1-6.5-4.9-8.3-8.8-8.1-17.1-14-34.8-18.1-53.2-3.5-15.5-6.5-30.9-9.9-47.8z"/></g></svg>